<?xml version="1.0" standalone="no"?>
<!DOCTYPE svg PUBLIC "-//W3C//DTD SVG 20010904//EN"
 "http://www.w3.org/TR/2001/REC-SVG-20010904/DTD/svg10.dtd">
<svg version="1.0" xmlns="http://www.w3.org/2000/svg"
 width="594.000000pt" height="594.000000pt" viewBox="0 0 594.000000 594.000000"
 preserveAspectRatio="xMidYMid meet">
<metadata>
Created by potrace 1.11, written by Peter Selinger 2001-2013
</metadata>
<g transform="translate(0.000000,594.000000) scale(0.100000,-0.100000)"
fill="#000000" stroke="none">
<path d="M2315 5925 c-213 -34 -398 -89 -641 -191 -286 -119 -428 -198 -649
-364 -353 -265 -548 -479 -684 -755 -169 -340 -197 -672 -87 -1028 l24 -77
-33 -34 c-83 -89 -70 -292 32 -504 58 -119 167 -222 234 -222 23 0 34 -11 72
-77 122 -212 268 -359 415 -419 l57 -23 2 -83 c2 -90 22 -165 57 -213 15 -20
26 -58 34 -116 37 -261 206 -541 412 -679 75 -51 192 -102 272 -120 55 -12 60
-17 222 -186 180 -187 288 -280 405 -350 174 -102 448 -167 761 -180 l145 -7
125 -83 c209 -139 372 -201 556 -211 112 -6 156 3 205 44 58 49 75 121 43 188
-8 18 -60 87 -115 155 -55 67 -99 123 -97 125 2 1 66 34 143 73 421 211 721
460 899 745 45 73 46 73 118 96 214 68 386 210 473 392 60 125 43 230 -42 266
-31 12 -47 13 -97 3 -65 -12 -149 -47 -195 -79 l-29 -21 -5 178 c-3 136 -10
195 -26 255 -46 172 -143 373 -254 529 l-53 74 91 42 c165 77 340 210 417 316
47 65 35 143 -31 199 -50 42 -95 52 -231 52 -120 -1 -130 -2 -245 -42 -66 -23
-176 -66 -245 -97 l-125 -55 -16 82 c-19 95 -58 179 -94 203 -20 13 -25 25
-25 56 0 151 -129 536 -301 897 -36 76 -46 107 -39 116 75 90 -40 375 -193
478 -38 26 -48 28 -107 25 l-65 -5 -116 111 c-130 126 -242 208 -427 314 -192
111 -299 157 -460 199 -84 21 -374 26 -487 8z m506 -68 c134 -35 225 -75 406
-179 323 -184 546 -389 742 -681 234 -350 491 -997 491 -1238 0 -43 -8 -67
-46 -138 -175 -324 -456 -626 -812 -872 -99 -69 -449 -220 -622 -269 -203 -58
-338 -84 -357 -68 -12 10 -17 9 -27 -4 -13 -17 -89 -27 -396 -48 -85 -6 -204
-18 -265 -25 -257 -33 -382 -28 -521 19 -85 29 -119 46 -162 83 l-34 28 229 0
c226 0 230 1 394 37 265 59 390 93 666 179 390 122 491 164 696 293 456 287
708 515 1001 906 99 132 97 115 40 289 -119 362 -531 893 -895 1153 -112 80
-203 130 -327 178 l-103 41 -82 -11 c-392 -53 -809 -231 -1402 -599 -286 -177
-416 -277 -651 -504 -151 -145 -208 -213 -248 -292 l-25 -50 59 -119 c80 -161
216 -506 190 -480 -7 7 -52 112 -101 235 -50 123 -95 229 -101 236 -16 20 -32
0 -20 -23 20 -38 142 -347 139 -351 -8 -8 -123 125 -155 179 -52 87 -84 191
-90 290 -4 72 -2 90 12 103 18 19 21 42 5 47 -19 6 24 106 131 309 169 318
283 499 425 668 77 91 235 249 297 295 21 16 35 32 32 37 -3 5 2 6 10 3 9 -3
19 3 26 16 6 11 15 18 20 15 4 -3 10 -1 12 4 7 19 337 163 514 224 243 84 438
118 659 113 121 -3 169 -8 246 -29z m217 -419 c112 -49 214 -108 319 -186 88
-66 331 -300 391 -378 l32 -42 -79 34 c-83 36 -203 64 -276 64 -31 0 -52 7
-72 24 -62 52 -192 132 -263 162 -74 32 -75 33 -115 107 -57 106 -87 141 -147
171 -41 21 -66 26 -122 26 -141 -1 -257 -88 -288 -218 l-12 -47 -95 -31 c-179
-59 -338 -138 -581 -291 -315 -198 -500 -360 -620 -541 l-15 -23 -57 26 c-159
73 -281 22 -334 -137 -36 -109 1 -222 104 -320 l55 -52 -34 -103 c-18 -56 -35
-101 -37 -99 -2 3 -30 70 -62 150 -33 81 -82 194 -110 251 -48 101 -50 106
-35 134 30 59 136 179 253 289 233 217 338 298 590 457 524 327 913 508 1257
584 185 40 238 39 353 -11z m957 -252 c83 -84 138 -192 143 -282 3 -35 0 -64
-4 -64 -5 0 -25 28 -44 62 -60 106 -67 117 -81 134 -8 10 -12 26 -11 37 3 15
0 18 -12 14 -12 -5 -16 0 -16 18 0 14 -6 25 -13 25 -8 0 -32 21 -54 48 -60 72
-60 72 -12 72 38 0 47 -6 104 -64z m-825 -319 c-78 -38 -199 -155 -249 -241
-82 -138 -122 -323 -101 -463 24 -157 83 -274 195 -387 78 -78 174 -136 271
-161 75 -19 232 -19 309 0 187 47 352 180 439 355 26 52 49 96 50 98 2 2 23
-27 46 -64 34 -55 40 -71 32 -88 -20 -43 -230 -294 -327 -391 -161 -161 -407
-348 -698 -529 -169 -105 -254 -140 -636 -262 -420 -133 -497 -148 -538 -100
-38 45 -31 62 34 81 284 83 483 348 483 645 0 312 -202 557 -527 641 -80 20
-201 25 -265 10 -35 -8 -38 -7 -40 13 -5 77 20 133 87 195 112 104 652 427
895 536 181 81 263 105 420 121 80 8 150 17 155 19 39 14 19 -1 -35 -28z m405
-14 c227 -55 406 -226 460 -438 31 -122 14 -299 -40 -405 -21 -41 -35 -55 -83
-79 -221 -111 -464 -86 -622 65 -102 98 -150 232 -150 422 0 150 37 269 112
364 74 94 156 112 323 71z m621 -707 c36 -109 39 -132 25 -155 -7 -11 -23 7
-63 70 l-53 84 0 107 0 107 28 -55 c15 -30 44 -102 63 -158z m-2241 -201 c179
-47 336 -168 409 -315 87 -178 86 -364 -3 -545 -49 -100 -120 -180 -214 -242
-66 -44 -77 -48 -124 -46 -66 3 -191 29 -262 54 -77 27 -154 75 -221 139 -211
203 -254 490 -114 760 48 93 84 132 149 164 116 56 243 67 380 31z m2577 -292
c36 -64 67 -210 53 -254 -6 -19 -11 -15 -36 32 -28 52 -60 87 -96 108 -16 9
-15 15 17 75 19 36 37 66 40 66 3 0 13 -12 22 -27z m837 -74 c93 -20 143 -72
127 -134 -9 -37 -98 -130 -169 -176 -39 -25 -74 -39 -110 -44 -28 -4 -80 -18
-115 -32 l-63 -25 -69 21 c-87 27 -148 72 -179 134 -21 43 -22 53 -12 86 10
34 19 42 73 66 225 101 383 133 517 104z m-916 -78 c33 -21 54 -49 84 -111
l22 -45 -37 -67 c-20 -38 -39 -68 -42 -68 -3 0 -13 22 -23 49 -12 34 -33 63
-67 94 l-50 45 37 61 c21 33 40 60 43 60 3 1 18 -7 33 -18z m-4060 -110 c34
-38 67 -91 67 -108 0 -4 -10 10 -23 31 -23 40 -51 65 -62 54 -4 -3 7 -24 23
-46 29 -41 63 -139 92 -271 17 -80 39 -106 41 -49 1 33 1 33 10 -7 9 -47 12
-169 3 -178 -3 -3 -17 -1 -30 5 l-24 11 21 20 c25 24 12 45 -18 28 -17 -8 -25
-5 -51 22 -36 37 -41 62 -13 70 53 14 45 162 -13 260 -30 50 -33 52 -74 51
-41 -1 -42 0 -42 33 0 32 37 113 51 113 4 0 23 -18 42 -39z m3977 -57 c36 -31
65 -84 75 -137 6 -31 3 -43 -22 -76 l-29 -40 -19 36 c-22 40 -110 123 -131
123 -8 0 -14 2 -14 5 0 14 84 115 95 115 8 0 28 -12 45 -26z m354 -77 c278
-229 522 -636 567 -945 15 -107 6 -370 -16 -472 -9 -41 -30 -117 -47 -169 -29
-89 -36 -100 -118 -190 -153 -167 -221 -227 -335 -297 -243 -148 -576 -269
-1139 -414 -293 -75 -380 -90 -530 -90 -144 0 -208 14 -315 70 -185 97 -305
246 -285 355 4 22 22 42 69 77 127 95 175 217 126 323 -44 97 -142 138 -280
116 -244 -39 -288 -42 -414 -36 l-129 6 4 -23 c2 -18 12 -24 48 -31 67 -12
324 -1 410 18 94 21 207 23 240 6 127 -68 115 -225 -27 -333 -63 -48 -185
-113 -258 -138 l-59 -20 -40 39 c-54 52 -110 78 -195 93 -90 15 -193 2 -279
-37 l-62 -28 -55 34 c-62 38 -165 135 -203 191 l-24 37 21 69 c35 116 112 206
220 255 45 21 56 22 132 14 108 -11 358 -2 479 18 457 75 1022 297 1394 548
49 33 60 37 67 24 5 -8 28 -39 52 -69 34 -41 45 -64 49 -101 3 -26 17 -69 30
-95 34 -66 62 -68 123 -8 25 25 45 51 45 57 0 22 -96 109 -128 115 -22 5 -44
23 -78 66 -25 33 -47 65 -48 72 0 7 40 43 89 81 306 232 565 511 729 784 31
52 56 98 56 103 0 16 16 6 114 -75z m-4184 34 c13 -26 13 -31 -5 -31 -8 0 -15
4 -15 9 0 5 -3 16 -6 25 -9 23 13 20 26 -3z m44 -68 c6 -15 -8 -32 -26 -33
-12 0 -20 20 -14 35 7 20 32 19 40 -2z m-205 -35 c11 -24 22 -54 26 -68 l7
-25 -27 26 c-16 16 -30 44 -35 68 -10 54 6 53 29 -1z m3871 15 c47 -31 88 -75
105 -113 l18 -39 -53 -65 c-55 -70 -70 -79 -70 -44 0 38 -41 108 -85 145 l-44
36 41 49 c45 53 52 56 88 31z m-3640 -53 c0 -15 -7 -20 -25 -20 -41 0 -30 37
13 39 6 1 12 -8 12 -19z m-103 -22 c-3 -8 -6 -5 -6 6 -1 11 2 17 5 13 3 -3 4
-12 1 -19z m10 -40 c-3 -8 -6 -5 -6 6 -1 11 2 17 5 13 3 -3 4 -12 1 -19z m109
1 c7 -12 -12 -29 -32 -29 -7 0 -14 9 -17 20 -4 16 0 20 18 20 13 0 27 -5 31
-11z m3558 -68 c23 -31 31 -55 34 -98 3 -54 2 -60 -25 -86 l-30 -28 -12 53
c-17 77 -52 138 -88 158 l-32 17 32 31 31 31 31 -18 c16 -11 43 -38 59 -60z
m-3657 27 c-3 -8 -6 -5 -6 6 -1 11 2 17 5 13 3 -3 4 -12 1 -19z m103 -34 c0
-19 -5 -25 -17 -22 -24 4 -28 35 -6 41 10 3 19 5 21 6 1 0 2 -11 2 -25z m3422
-51 c40 -45 65 -148 48 -198 -17 -51 -245 -244 -451 -383 -198 -132 -455 -270
-673 -359 -103 -42 -115 -45 -178 -41 -104 8 -152 51 -152 137 0 85 14 102
107 135 393 138 803 371 1117 636 112 94 150 109 182 73z m-3422 -13 c0 -5 -7
-10 -15 -10 -8 0 -15 5 -15 10 0 6 7 10 15 10 8 0 15 -4 15 -10z m0 -44 c0 -3
-4 -8 -10 -11 -5 -3 -10 -1 -10 4 0 6 5 11 10 11 6 0 10 -2 10 -4z m1965 -778
c0 -92 24 -136 95 -171 l49 -24 -74 -22 c-40 -11 -80 -21 -87 -21 -21 0 -64
49 -87 100 -21 45 -28 143 -13 166 5 10 85 40 112 43 3 1 6 -32 5 -71z m1318
4 c15 -17 16 -21 3 -31 -12 -10 -18 -6 -36 29 -19 38 -19 40 -3 32 10 -6 26
-19 36 -30z m-1446 -167 c11 -22 30 -49 42 -59 12 -11 21 -23 21 -27 0 -4 -34
-15 -76 -24 -75 -17 -75 -17 -98 4 -13 12 -38 53 -55 91 -25 53 -31 80 -29
117 l3 48 80 21 80 21 6 -76 c3 -48 13 -91 26 -116z m-225 88 c4 -61 45 -163
79 -199 19 -20 19 -22 3 -28 -10 -4 -43 -9 -74 -13 l-56 -5 -42 48 c-55 64
-92 139 -92 186 0 35 2 37 38 43 20 4 55 10 77 15 22 4 45 8 51 9 7 1 13 -22
16 -56z m-212 -12 c0 -52 28 -114 80 -179 23 -30 39 -57 35 -60 -4 -4 -48 -10
-98 -13 -89 -6 -93 -5 -119 19 -94 87 -35 255 95 271 4 1 7 -17 7 -38z m3642
-21 c28 -28 30 -35 26 -81 -3 -28 -10 -55 -15 -60 -14 -14 -64 12 -92 46 -22
29 -46 93 -38 102 5 5 58 19 80 22 5 1 22 -13 39 -29z m-164 -55 c14 -51 68
-117 112 -135 17 -7 30 -15 30 -18 0 -2 -9 -20 -21 -38 -17 -29 -23 -32 -40
-23 -44 23 -129 168 -129 221 0 23 9 34 30 37 3 1 11 -19 18 -44z m-41 -117
c15 -29 47 -72 71 -97 23 -25 42 -45 42 -46 0 0 -18 1 -40 3 -44 4 -68 29
-113 117 -38 74 -42 100 -21 133 l18 27 8 -43 c4 -23 20 -66 35 -94z m-38
-103 c2 -5 -4 -4 -13 4 -23 19 -42 57 -51 101 -5 28 0 22 26 -30 18 -36 35
-69 38 -75z m-3518 -636 c-3 -45 -5 -50 -25 -47 -17 2 -21 9 -19 38 1 29 23
60 42 60 3 0 4 -23 2 -51z m-78 4 c-3 -18 -9 -33 -14 -33 -14 0 -11 58 4 63
16 6 15 7 10 -30z m152 -13 c0 -45 -2 -50 -22 -50 -19 0 -23 5 -23 34 0 46 9
66 29 66 13 0 16 -10 16 -50z m65 -5 c0 -32 -4 -45 -14 -45 -17 0 -27 37 -19
68 10 41 33 26 33 -23z m-282 5 c-2 -6 -8 -6 -18 0 -13 9 -13 11 0 20 15 10
25 0 18 -20z m361 -6 c35 -29 32 -44 -8 -44 -21 0 -30 6 -35 23 -14 54 -3 60
43 21z m1866 -660 c-36 -12 -77 -29 -90 -38 -14 -9 -25 -13 -25 -8 0 16 55 61
100 81 41 18 46 19 63 4 17 -16 14 -18 -48 -39z m109 -39 c16 -24 16 -25 -6
-25 -37 0 -123 -45 -171 -89 -24 -23 -47 -41 -50 -41 -3 0 -11 17 -16 38 -10
33 -8 39 12 55 48 38 154 85 198 86 9 1 24 -10 33 -24z m64 -78 l22 -24 -38
-11 c-52 -16 -123 -65 -147 -102 -11 -16 -24 -30 -28 -30 -16 0 -67 41 -67 54
0 28 101 105 170 129 34 12 68 6 88 -16z m71 -91 c27 -32 -79 -95 -158 -96
l-45 0 35 36 c57 61 143 91 168 60z"/>
<path d="M2371 5801 c-51 -9 -52 -31 -2 -31 39 0 62 15 45 29 -5 4 -24 5 -43
2z"/>
<path d="M2355 5730 c-3 -6 0 -13 9 -16 22 -8 59 -1 64 14 5 15 -64 17 -73 2z"/>
<path d="M2421 5671 c-14 -4 -26 -12 -29 -19 -5 -15 54 -17 64 -1 10 16 -8 27
-35 20z"/>
<path d="M1665 5162 c-275 -142 -399 -217 -570 -346 -140 -106 -286 -256 -249
-256 4 0 48 40 99 89 177 169 395 313 732 484 195 98 256 138 211 137 -7 0
-107 -49 -223 -108z"/>
<path d="M3570 5203 c0 -3 38 -43 83 -87 46 -45 108 -111 136 -148 29 -38 57
-68 62 -68 21 0 5 31 -56 107 -95 119 -225 232 -225 196z"/>
<path d="M3730 5123 c0 -10 52 -63 62 -63 16 0 8 27 -15 48 -23 21 -47 29 -47
15z"/>
<path d="M4320 3945 c-7 -8 -9 -23 -5 -32 6 -17 7 -17 21 1 26 36 12 64 -16
31z"/>
<path d="M4356 3908 c-20 -28 -20 -38 -1 -38 14 0 35 29 35 49 0 18 -18 12
-34 -11z"/>
<path d="M3955 3280 c-10 -16 16 -43 28 -31 11 11 2 41 -12 41 -5 0 -13 -5
-16 -10z"/>
<path d="M3520 3144 c-163 -133 -430 -289 -632 -369 -54 -21 -98 -42 -98 -46
0 -19 22 -15 110 20 185 73 358 168 528 288 124 90 169 129 157 141 -7 7 -28
-5 -65 -34z"/>
<path d="M2680 3669 c-41 -17 -79 -60 -86 -98 -3 -20 -19 -66 -35 -103 -22
-49 -30 -83 -31 -128 -1 -56 2 -65 29 -92 24 -24 39 -30 74 -30 24 -1 59 7 78
16 28 15 35 16 42 5 79 -135 99 -142 194 -74 92 65 95 73 54 158 -27 55 -31
71 -20 75 8 2 31 20 52 39 34 31 39 41 39 78 0 36 -5 48 -35 74 -41 36 -118
61 -189 61 -29 0 -59 7 -70 15 -22 17 -59 18 -96 4z m230 -80 c52 -11 110 -50
110 -74 0 -35 -185 -135 -248 -135 -60 0 -122 49 -122 97 0 18 9 25 42 34 26
7 55 25 77 49 40 42 62 46 141 29z m33 -275 c22 -44 25 -59 16 -70 -10 -12
-19 -5 -51 43 -35 53 -37 59 -21 71 9 6 20 12 23 12 3 0 18 -25 33 -56z m-61
-42 l38 -57 -23 -17 c-12 -10 -27 -18 -33 -18 -6 0 -27 26 -47 58 l-36 57 22
17 c12 10 27 18 32 18 6 0 27 -26 47 -58z"/>
<path d="M3465 4458 c-62 -34 -74 -110 -26 -159 61 -61 171 -19 171 66 0 34
-25 82 -49 95 -25 13 -71 12 -96 -2z"/>
<path d="M1677 3426 c-91 -84 3 -218 113 -161 37 19 50 43 50 90 0 82 -103
126 -163 71z"/>
<path d="M4500 3541 c0 -20 27 -48 37 -37 9 8 -14 56 -27 56 -5 0 -10 -8 -10
-19z"/>
<path d="M5048 3493 c-19 -5 -25 -33 -7 -33 19 0 50 21 44 31 -6 9 -9 10 -37
2z"/>
<path d="M4855 3436 c-11 -8 -17 -18 -12 -22 10 -10 61 8 59 21 -2 16 -26 17
-47 1z"/>
<path d="M4420 3441 c0 -5 7 -15 16 -22 9 -7 20 -23 25 -36 5 -13 13 -23 19
-23 17 0 11 36 -11 64 -20 25 -49 35 -49 17z"/>
<path d="M4316 3288 c14 -23 38 -48 46 -48 12 0 9 35 -4 48 -16 16 -52 16 -42
0z"/>
<path d="M4876 2882 c-3 -5 17 -37 44 -71 97 -121 161 -262 189 -419 18 -101
37 -123 34 -40 -1 62 -26 158 -65 252 -48 116 -185 305 -202 278z"/>
<path d="M3937 2033 c-14 -13 -6 -34 30 -89 22 -34 42 -54 52 -52 27 5 24 36
-10 85 -41 60 -57 72 -72 56z"/>
<path d="M3294 1886 c-10 -26 0 -51 21 -51 16 0 20 7 20 30 0 33 -30 49 -41
21z"/>
<path d="M4123 1763 c-17 -6 -16 -28 2 -63 16 -32 42 -39 51 -16 5 14 -19 71
-33 79 -5 2 -14 2 -20 0z"/>
<path d="M3346 1718 c-33 -33 -37 -34 -93 -30 -49 3 -64 0 -92 -20 -49 -33
-74 -80 -73 -137 3 -129 10 -191 21 -205 17 -20 75 -21 91 -2 8 11 18 12 36 5
75 -28 165 7 196 77 22 51 19 99 -12 160 -18 33 -18 39 -4 66 9 16 14 47 12
71 -4 57 -35 62 -82 15z"/>
<path d="M2884 1615 c-9 -23 3 -45 25 -45 26 0 31 10 20 38 -10 25 -37 30 -45
7z"/>
<path d="M3604 1525 c-8 -21 4 -35 30 -35 27 0 51 24 41 40 -9 15 -65 12 -71
-5z"/>
<path d="M4303 1453 c-18 -6 -16 -34 3 -61 19 -28 54 -30 54 -3 0 25 -41 71
-57 64z"/>
<path d="M2520 1281 c-7 -14 -7 -22 1 -27 13 -8 41 24 33 37 -9 15 -23 10 -34
-10z"/>
<path d="M2432 1258 c-14 -14 -16 -38 -4 -38 12 0 32 23 32 37 0 16 -12 17
-28 1z"/>
<path d="M3181 1236 c-18 -21 -9 -51 14 -51 15 0 20 7 20 29 0 33 -16 44 -34
22z"/>
<path d="M4424 1179 c8 -52 12 -59 36 -59 25 0 30 19 16 60 -8 25 -18 36 -35
38 -23 4 -24 2 -17 -39z"/>
<path d="M4234 3139 c-4 -7 1 -18 11 -26 24 -17 35 -17 35 2 0 20 -36 39 -46
24z"/>
<path d="M4130 3012 c0 -5 6 -16 13 -27 18 -24 41 -11 27 16 -10 19 -40 27
-40 11z"/>
<path d="M3831 2814 c-53 -44 -54 -122 -1 -149 45 -23 85 -19 122 14 25 22 32
36 32 66 0 30 -7 44 -32 66 -41 36 -80 37 -121 3z m80 -34 c25 -14 25 -56 -1
-70 -45 -24 -86 44 -42 69 21 13 20 13 43 1z"/>
<path d="M3534 2576 c-110 -48 -89 -183 28 -179 126 5 144 153 23 186 -11 4
-34 0 -51 -7z m76 -66 c8 -14 8 -26 0 -40 -19 -35 -80 -20 -80 20 0 40 61 55
80 20z"/>
<path d="M3008 2314 c-30 -16 -58 -61 -58 -94 0 -12 14 -35 30 -52 29 -28 35
-30 86 -26 71 6 106 37 106 94 0 76 -90 119 -164 78z m93 -44 c25 -14 25 -56
-1 -70 -42 -22 -82 34 -48 68 15 15 24 15 49 2z"/>
<path d="M3070 2251 c0 -22 25 -39 38 -27 8 8 -10 38 -26 44 -7 2 -12 -6 -12
-17z"/>
<path d="M2497 2063 c-7 -12 8 -47 26 -61 22 -18 26 -2 11 36 -14 31 -28 40
-37 25z"/>
<path d="M2320 2012 c0 -17 9 -37 21 -48 l22 -19 -7 40 c-9 46 -13 55 -27 55
-5 0 -9 -13 -9 -28z"/>
<path d="M2104 1976 c-8 -22 3 -49 19 -43 6 2 12 14 12 27 0 27 -22 39 -31 16z"/>
<path d="M1914 1975 c-8 -31 14 -93 38 -109 26 -16 32 -1 12 29 -9 14 -18 43
-19 63 -3 43 -22 54 -31 17z"/>
</g>
</svg>
